<svg width="99" height="76" viewBox="0 0 99 76" fill="none" xmlns="http://www.w3.org/2000/svg">
<circle cx="67.2118" cy="46.8128" r="7.80299" stroke="#0FAFC8" stroke-width="5.202" stroke-linecap="round" stroke-linejoin="round"/>
<path d="M49.0049 28.6063C47.5684 28.6063 46.4039 29.7708 46.4039 31.2073C46.4039 32.6438 47.5684 33.8083 49.0049 33.8083V28.6063ZM67.2119 26.0053C68.6484 26.0053 69.8129 24.8408 69.8129 23.4043C69.8129 21.9678 68.6484 20.8033 67.2119 20.8033V26.0053ZM93.2219 41.6112C93.2219 40.1747 92.0574 39.0102 90.6209 39.0102C89.1844 39.0102 88.0199 40.1747 88.0199 41.6112H93.2219ZM49.0049 33.8082C50.4414 33.8082 51.6059 32.6437 51.6059 31.2072C51.6059 29.7708 50.4414 28.6062 49.0049 28.6062V33.8082ZM49.0049 33.8083H54.2069V28.6063H49.0049V33.8083ZM54.2069 33.8083C58.5164 33.8083 62.0099 30.3148 62.0099 26.0053H56.8079C56.8079 27.4418 55.6434 28.6063 54.2069 28.6063V33.8083ZM62.0099 26.0053V20.8033C59.1369 20.8033 56.8079 23.1323 56.8079 26.0053H62.0099ZM62.0099 26.0053H67.2119V20.8033H62.0099V26.0053ZM88.0199 41.6112V59.8182H93.2219V41.6112H88.0199ZM88.0199 59.8182C88.0199 61.2547 86.8554 62.4192 85.4189 62.4192V67.6212C89.7284 67.6212 93.2219 64.1277 93.2219 59.8182H88.0199ZM85.4189 62.4192H49.0049V67.6212H85.4189V62.4192ZM49.0049 62.4192C47.5684 62.4192 46.4039 61.2547 46.4039 59.8182H41.2019C41.2019 64.1277 44.6954 67.6212 49.0049 67.6212V62.4192ZM46.4039 59.8182V36.4092H41.2019V59.8182H46.4039ZM46.4039 36.4092C46.4039 34.9727 47.5684 33.8082 49.0049 33.8082V28.6062C44.6954 28.6062 41.2019 32.0998 41.2019 36.4092H46.4039Z" fill="#0FAFC8"/>
<path d="M75.0151 28.6062H90.6211" stroke="#0FAFC8" stroke-width="5.202" stroke-linecap="round" stroke-linejoin="round"/>
<path d="M82.818 20.8027V36.4087" stroke="#0FAFC8" stroke-width="5.202" stroke-linecap="round" stroke-linejoin="round"/>
<path d="M7.80295 54.621V44.217C7.80295 38.471 12.461 33.813 18.2069 33.813C23.9529 33.813 28.6109 38.471 28.6109 44.217C28.6109 49.9629 23.9529 54.621 18.2069 54.621H7.80295" stroke="#0FAFC8" stroke-width="5.202" stroke-linecap="round" stroke-linejoin="round"/>
<path d="M54.621 7.80273C39.4978 9.87131 26.7206 20.0531 21.3282 34.3329" stroke="#0FAFC8" stroke-width="5.202" stroke-linecap="round" stroke-linejoin="round"/>
<path d="M54.6209 7.80273C52.5523 22.9259 42.3705 35.7031 28.0907 41.0955" stroke="#0FAFC8" stroke-width="5.202" stroke-linecap="round" stroke-linejoin="round"/>
<path d="M27.5707 23.4087C32.6248 25.7414 36.6823 29.7989 39.0151 34.8531" stroke="#0FAFC8" stroke-width="5.202" stroke-linecap="round" stroke-linejoin="round"/>
</svg>
