<svg width="91" height="91" viewBox="0 0 91 91" fill="none" xmlns="http://www.w3.org/2000/svg">
<path d="M85.2219 23.4089L59.2119 13.0049L33.202 23.4089L59.2119 33.8129L85.2219 23.4089V39.0149" stroke="#0FAFC8" stroke-width="5.202" stroke-linecap="round" stroke-linejoin="round"/>
<path d="M43.606 27.5708V41.6162C43.606 45.9257 50.5931 49.4192 59.212 49.4192C67.831 49.4192 74.818 45.9257 74.818 41.6162V27.5708" stroke="#0FAFC8" stroke-width="5.202" stroke-linecap="round" stroke-linejoin="round"/>
<path d="M7.80312 56.6114C6.36662 56.6114 5.20212 57.7759 5.20212 59.2124C5.20212 60.6489 6.36662 61.8134 7.80312 61.8134V56.6114ZM10.4041 61.8134C11.8406 61.8134 13.0051 60.6489 13.0051 59.2124C13.0051 57.7759 11.8406 56.6114 10.4041 56.6114V61.8134ZM33.8131 35.8032C33.8131 34.3667 32.6486 33.2022 31.2121 33.2022C29.7756 33.2022 28.6111 34.3667 28.6111 35.8032H33.8131ZM28.6111 38.4042C28.6111 39.8407 29.7756 41.0052 31.2121 41.0052C32.6486 41.0052 33.8131 39.8407 33.8131 38.4042H28.6111ZM52.0201 56.6114C50.5836 56.6114 49.4191 57.7759 49.4191 59.2124C49.4191 60.6489 50.5836 61.8134 52.0201 61.8134V56.6114ZM54.6211 61.8134C56.0576 61.8134 57.2221 60.6489 57.2221 59.2124C57.2221 57.7759 56.0576 56.6114 54.6211 56.6114V61.8134ZM16.4049 40.7266C15.3891 39.7109 13.7423 39.7109 12.7265 40.7266C11.7108 41.7424 11.7108 43.3892 12.7265 44.405L16.4049 40.7266ZM14.5472 46.2257C15.563 47.2414 17.2098 47.2414 18.2256 46.2257C19.2413 45.2099 19.2413 43.5631 18.2256 42.5473L14.5472 46.2257ZM7.80312 61.8134H10.4041V56.6114H7.80312V61.8134ZM28.6111 35.8032V38.4042H33.8131V35.8032H28.6111ZM52.0201 61.8134H54.6211V56.6114H52.0201V61.8134ZM12.7265 44.405L14.5472 46.2257L18.2256 42.5473L16.4049 40.7266L12.7265 44.405Z" fill="#0FAFC8"/>
<path d="M23.4089 69.616C18.9307 66.2574 17.1041 60.41 18.8743 55.0995C20.6445 49.789 25.6142 46.207 31.2119 46.207C36.8097 46.207 41.7794 49.789 43.5495 55.0995C45.3197 60.41 43.4931 66.2574 39.0149 69.616C36.9553 71.6548 35.9895 74.5523 36.4139 77.419C36.4139 80.292 34.0849 82.621 31.2119 82.621C28.3389 82.621 26.0099 80.292 26.0099 77.419C26.4343 74.5523 25.4685 71.6548 23.4089 69.616" stroke="#0FAFC8" stroke-width="5.202" stroke-linecap="round" stroke-linejoin="round"/>
<path d="M25.2297 72.217H37.1943" stroke="#0FAFC8" stroke-width="5.202" stroke-linecap="round" stroke-linejoin="round"/>
</svg>
