<svg width="58" height="55" viewBox="0 0 58 55" fill="none" xmlns="http://www.w3.org/2000/svg">
<path d="M2.5 7.5H55.5V48C55.5 50.4853 53.4853 52.5 51 52.5H7C4.51472 52.5 2.5 50.4853 2.5 48V7.5Z" stroke="#0FAFC8" stroke-width="5"/>
<rect x="14.75" y="18.75" width="3.5" height="3.5" stroke="#0FAFC8" stroke-width="3.5"/>
<rect x="14.75" y="28.75" width="3.5" height="3.5" stroke="#0FAFC8" stroke-width="3.5"/>
<rect x="14.75" y="38.75" width="3.5" height="3.5" stroke="#0FAFC8" stroke-width="3.5"/>
<rect x="26.75" y="18.75" width="3.5" height="3.5" stroke="#0FAFC8" stroke-width="3.5"/>
<rect x="26.75" y="28.75" width="3.5" height="3.5" stroke="#0FAFC8" stroke-width="3.5"/>
<rect x="26.75" y="38.75" width="3.5" height="3.5" stroke="#0FAFC8" stroke-width="3.5"/>
<rect x="38.75" y="18.75" width="3.5" height="3.5" stroke="#0FAFC8" stroke-width="3.5"/>
<rect x="38.75" y="28.75" width="3.5" height="3.5" stroke="#0FAFC8" stroke-width="3.5"/>
<path d="M3 3V8.5" stroke="#0FAFC8" stroke-width="5" stroke-linecap="round"/>
<path d="M16 3V8.5" stroke="#0FAFC8" stroke-width="5" stroke-linecap="round"/>
<path d="M29 3V8.5" stroke="#0FAFC8" stroke-width="5" stroke-linecap="round"/>
<path d="M42 3V8.5" stroke="#0FAFC8" stroke-width="5" stroke-linecap="round"/>
<path d="M55 3V8.5" stroke="#0FAFC8" stroke-width="5" stroke-linecap="round"/>
</svg>
